<?xml version="1.0" encoding="UTF-8" standalone="no"?>
<svg
   xmlns:dc="http://purl.org/dc/elements/1.1/"
   xmlns:cc="http://creativecommons.org/ns#"
   xmlns:rdf="http://www.w3.org/1999/02/22-rdf-syntax-ns#"
   xmlns:svg="http://www.w3.org/2000/svg"
   xmlns="http://www.w3.org/2000/svg"
   id="svg2033"
   version="1.1"
   viewBox="0 0 297 210"
   height="210mm"
   width="297mm">
  <defs
     id="defs2027" />
  <metadata
     id="metadata2030">
    <rdf:RDF>
      <cc:Work
         rdf:about="">
        <dc:format>image/svg+xml</dc:format>
        <dc:type
           rdf:resource="http://purl.org/dc/dcmitype/StillImage" />
        <dc:title></dc:title>
      </cc:Work>
    </rdf:RDF>
  </metadata>
  <g
     transform="translate(0,-87)"
     id="layer1">
    <g
       transform="matrix(0.26458333,0,0,0.26458333,0.40524619,90.147232)"
       id="g5899">
      <ellipse
         cy="377.92902"
         cx="362.57358"
         id="circle2"
         style="fill:#f2f2f2;stroke-width:1.18218791"
         rx="318.88959"
         ry="373.68896" />
      <path
         d="m 1122.6507,667.14111 a 14.950475,17.519629 0 0 1 -0.1857,2.71304 C 1114.6676,725.85554 866.41766,770.79998 561.32533,770.79998 256.233,770.79998 7.9830508,725.85554 0.18565235,669.85415 A 14.934094,17.500433 0 0 1 0,667.14111 c 0,-0.25595 0,-0.52469 0.02184145,-0.78064 0,-0.14078 0.01092073,-0.26875 0.01092073,-0.40952 A 0.53511559,0.62707219 0 0 0 0.0436829,665.79739 C 0.08736581,665.2215 0.15289017,664.67121 0.24025598,664.10812 3.8004127,641.21359 47.581604,620.17468 118.99223,603.32052 c 58.40405,-13.78279 135.29688,-24.77575 223.79845,-31.68635 67.16246,-5.24693 141.00841,-8.15194 218.53465,-8.15194 62.37919,0 122.37765,1.88122 178.42282,5.33651 h 0.0218 q 17.5933,1.09418 34.66239,2.39312 c 77.89754,5.91239 147.02573,14.96015 202.72144,26.28585 34.25832,6.97457 63.44952,14.81937 86.48122,23.31684 h 0.011 c 35.4487,13.09174 56.3509,27.77033 58.7644,43.29357 0.087,0.56309 0.1529,1.11338 0.1966,1.68927 a 0.53183937,0.62323297 0 0 0 0.011,0.15356 c 0,0.14077 0.011,0.26874 0.011,0.40952 0.022,0.25595 0.022,0.52469 0.022,0.78064 z"
         id="path4"
         style="fill:#3f3d56;stroke-width:1.18218791" />
      <ellipse
         ry="30.713739"
         rx="180.19199"
         cy="736.24701"
         cx="547.12842"
         id="ellipse6"
         style="opacity:0.1;stroke-width:1.18218791" />
      <path
         d="m 1063.635,620.81455 c -6.3012,2.11157 -13.3997,4.06957 -21.1861,5.86121 -32.0633,7.39688 -75.81174,11.93996 -123.98307,11.93996 -53.81733,0 -102.05418,-5.66925 -134.73991,-14.64021 -27.12708,-7.44809 -43.55186,-17.13571 -43.55186,-27.77035 0,-9.34209 12.71172,-17.99312 34.25832,-24.9933 77.89754,5.91239 147.02573,14.96015 202.72144,26.28585 34.25828,6.97457 63.44948,14.81937 86.48118,23.31684 z M 580.98263,606.67344 c 0,19.36244 -103.65953,35.06485 -231.51939,35.06485 -127.85986,0 -231.5194,-15.70241 -231.5194,-35.06485 a 4.7745415,5.5950197 0 0 1 1.04839,-3.35292 c 58.40405,-13.78279 135.29688,-24.77575 223.79845,-31.68635 q 3.32535,-0.0192 6.67256,-0.0128 c 127.85986,0 231.51939,15.6896 231.51939,35.05206 z"
         id="path8"
         style="opacity:0.1;stroke-width:1.18218791" />
      <path
         d="m 454.81767,432.92069 h 45.52304 V 605.1531 H 454.81767 Z M 305.24085,352.13843 H 350.7639 V 605.1531 h -45.52305 z m -148.27725,0 h 45.52305 V 605.1531 H 156.9636 Z m 74.13862,0 h 45.52305 v 172.23241 h -45.52305 z m 148.27617,0 h 45.52304 v 50.29758 h -45.52304 z"
         id="path10"
         style="fill:#38d39f;stroke-width:1.18218791" />
      <path
         d="m 379.37839,432.92069 h 45.52304 V 605.1531 h -45.52304 z"
         id="path12"
         style="fill:#8a8b8c;stroke-width:1.18218791" />
      <path
         d="m 454.81767,352.13843 h 119.66167 v 50.29758 H 454.81767 Z m 435.28922,-15.12908 q 46.68393,0 79.4745,38.18742 a 107.00455,125.39269 0 0 1 23.84213,42.02407 117.22963,137.37488 0 0 1 0.10374,100.34307 102.14483,119.69784 0 0 1 -23.74166,41.3279 114.34437,133.99381 0 0 1 -36.95573,28.87091 110.76346,129.79754 0 0 1 -42.71643,10.01268 108.13157,126.71338 0 0 1 -42.22061,-9.8975 114.49836,134.17426 0 0 1 -60.50082,-70.89243 111.13368,130.23138 0 0 1 0.0983,-99.30008 111.72668,130.92627 0 0 1 24.53668,-42.72537 q 31.78914,-37.94299 78.07991,-37.95067 z m 0.40407,23.51778 q -38.1461,0 -64.18001,31.20003 a 95.660101,112.09875 0 0 0 -20.16622,35.03926 88.227455,103.38885 0 0 0 0,81.02285 94.190171,110.37622 0 0 0 49.7734,57.98497 90.300209,105.81779 0 0 0 69.24832,-0.11517 96.09693,112.61065 0 0 0 30.29519,-23.51392 q 26.02518,-29.80129 26.0219,-74.74317 a 91.361704,107.0617 0 0 0 -6.75555,-40.97725 88.965696,104.25395 0 0 0 -19.6595,-34.46338 q -26.83878,-31.43166 -64.57862,-31.43422 z m -1.39457,85.21782 -14.9068,9.0836 a 15.295569,17.924027 0 0 0 -5.85787,-8.14939 13.199882,15.468208 0 0 0 -6.4607,-2.32657 q -14.89587,0 -14.90243,23.04939 0,10.47594 3.77202,16.75818 3.77639,6.28992 11.13041,6.2912 9.73692,0 13.71316,-11.17597 l 13.7055,8.14939 a 32.751258,38.379377 0 0 1 -29.20639,20.4899 q -14.90023,0 -24.04307,-10.71141 -9.13737,-10.70759 -9.13737,-29.79745 0,-18.62789 9.23893,-29.56837 9.23566,-10.9405 23.34742,-10.94434 20.66858,-0.0128 29.60609,18.85312 z m 64.17455,0 -14.70366,9.0836 a 15.28028,17.90611 0 0 0 -5.86225,-8.14939 13.512214,15.834213 0 0 0 -6.65509,-2.32657 q -14.90133,0 -14.90679,23.04939 0,10.47594 3.77639,16.75818 3.77092,6.28992 11.1304,6.2912 9.72709,0 13.70223,-11.17597 l 13.90864,8.14939 a 34.156755,40.026401 0 0 1 -12.31202,15.01902 32.104751,37.621772 0 0 1 -16.88781,5.47088 q -15.10446,0 -24.13481,-10.71141 -9.05328,-10.70759 -9.04673,-29.79745 0,-18.62789 9.24221,-29.56837 9.23129,-10.9405 23.34087,-10.94434 20.6642,-0.0128 29.40951,18.85312 z"
         id="path14"
         style="fill:#38d39f;stroke-width:1.18218791" />
      <path
         d="m 822.78607,657.33703 c 0,62.37064 -74.18885,43.07857 -165.02637,43.07857 -90.8375,0 -163.92446,19.29207 -163.92446,-43.07857 0,-62.37066 74.17903,-75.93717 165.01654,-75.93717 90.83751,0 163.93429,13.56523 163.93429,75.93717 z"
         id="path16"
         style="opacity:0.1;stroke-width:1.18218791" />
      <path
         d="m 822.78607,641.98016 c 0,62.37064 -74.18885,43.07858 -165.02637,43.07858 -90.8375,0 -163.92446,19.29206 -163.92446,-43.07858 0,-62.37065 74.17903,-75.93717 165.01654,-75.93717 90.83751,0 163.93429,13.56524 163.93429,75.93717 z"
         id="path18"
         style="fill:#3f3d56;stroke-width:1.18218791" />
      <path
         d="m 807.63357,530.01066 3.74909,18.12623 a 0.96648427,1.1325692 0 0 1 -0.0186,0.61171 l -17.01012,62.28874 a 0.96648427,1.1325692 0 0 1 -1.87946,-0.21755 l -2.35342,-24.26514 a 0.96648427,1.1325692 0 0 1 0.0415,-0.47862 l 15.61337,-56.14983 a 0.96648427,1.1325692 0 0 1 1.85652,0.0845 z"
         id="path20"
         style="fill:#2f2e41;stroke-width:1.18218791" />
      <path
         d="m 806.25319,531.54123 3.46297,15.55138 -15.0029,56.79739 -3.46187,-17.57978 z"
         id="path22"
         style="fill:#f2f2f2;stroke-width:1.18218791" />
      <path
         d="m 730.66648,616.0616 c 0.57661,2.02838 60.0083,-0.67699 60.58491,-1.35268 a 12.524981,14.677328 0 0 0 1.27008,-2.70537 c 0.54166,-1.35141 1.03747,-2.70409 1.03747,-2.70409 l -2.30755,-21.89378 -58.85397,-2.44815 c 0,0 -1.47103,18.55366 -1.77135,27.04602 a 17.312628,20.287705 0 0 0 0.0404,4.05677 z"
         id="path24"
         style="fill:#2f2e41;stroke-width:1.18218791" />
      <path
         d="m 783.75104,590.36699 1.15323,18.93247 h -25.96512 v -18.93247 z m -33.46657,6.08516 0.15508,-0.0358 -0.7317,8.14937 h -14.42518 v -8.11355 z m -19.61799,19.60945 c 0.57661,2.02838 60.0083,-0.67699 60.58491,-1.35268 a 12.524981,14.677328 0 0 0 1.27008,-2.70537 h -61.8954 a 17.312628,20.287705 0 0 0 0.0404,4.05677 z"
         id="path26"
         style="opacity:0.1;stroke-width:1.18218791" />
      <path
         d="m 638.92255,545.06423 h 16.15612 l 39.81369,-18.25548 c 0,0 28.27376,-13.52428 25.96512,12.17032 -2.30864,25.6946 -6.34713,60.17845 -6.34713,60.17845 0,0 -12.69425,-6.76214 -19.61799,-4.73375 -6.92374,2.02838 -2.30864,-41.246 -2.30864,-41.246 0,0 -56.54534,31.77976 -61.73923,27.723 -5.1939,-4.05678 -6.34603,-32.45547 -6.34603,-32.45547 z"
         id="path28"
         style="fill:#2f2e41;stroke-width:1.18218791" />
      <path
         d="m 638.92255,545.06423 h 16.15612 l 39.81369,-18.25548 c 0,0 28.27376,-13.52428 25.96512,12.17032 -2.30864,25.6946 -6.34713,60.17845 -6.34713,60.17845 0,0 -12.69425,-6.76214 -19.61799,-4.73375 -6.92374,2.02838 -2.30864,-41.246 -2.30864,-41.246 0,0 -56.54534,31.77976 -61.73923,27.723 -5.1939,-4.05678 -6.34603,-32.45547 -6.34603,-32.45547 z"
         id="path30"
         style="opacity:0.1;stroke-width:1.18218791" />
      <path
         d="m 664.37658,485.77519 19.55247,32.91874 45.58311,44.62705 c 0,0 42.12124,11.49462 36.35182,19.60817 -5.76942,8.11355 -40.96802,-8.11355 -40.96802,-8.11355 0,0 -52.50685,-44.62706 -54.23778,-48.00685 -1.73094,-3.37979 -20.77122,-35.16084 -20.77122,-35.16084 z"
         id="path32"
         style="fill:#a0616a;stroke-width:1.18218791" />
      <path
         d="m 664.37658,485.77519 19.55247,32.91874 45.58311,44.62705 c 0,0 42.12124,11.49462 36.35182,19.60817 -5.76942,8.11355 -40.96802,-8.11355 -40.96802,-8.11355 0,0 -52.50685,-44.62706 -54.23778,-48.00685 -1.73094,-3.37979 -20.77122,-35.16084 -20.77122,-35.16084 z"
         id="path34"
         style="opacity:0.1;stroke-width:1.18218791" />
      <ellipse
         cy="419.29913"
         cx="661.42578"
         id="circle36"
         style="fill:#a0616a;stroke-width:1.18218791"
         rx="25.965117"
         ry="30.427076" />
      <path
         d="m 659.69486,446.34515 c 0,0 -8.65467,17.58106 -10.38561,27.04729 -1.73093,9.46623 -25.96512,-18.93246 -25.96512,-18.93246 l -3.17356,-9.80536 c 0,0 22.79155,-12.50818 21.06062,-22.65139 -1.73094,-10.14322 18.46367,24.34192 18.46367,24.34192 z"
         id="path38"
         style="fill:#a0616a;stroke-width:1.18218791" />
      <path
         d="m 652.77112,459.19245 12.69425,29.07568 c 0,0 -2.88525,14.19871 -7.50144,15.55139 -4.6162,1.35267 -24.23309,-17.58107 -24.23309,-17.58107 z"
         id="path40"
         style="fill:#d0cde1;stroke-width:1.18218791" />
      <path
         d="m 664.31106,499.08576 23.65756,36.51223 56.54534,49.35954 c 0,0 40.96801,10.14194 31.73563,17.57978 -9.23238,7.43785 -35.77412,-6.76085 -35.77412,-6.76085 0,0 -57.12304,-35.83654 -69.24067,-50.71223 -12.11764,-14.87569 -34.6198,-39.89332 -34.6198,-39.89332 z"
         id="path42"
         style="fill:#a0616a;stroke-width:1.18218791" />
      <path
         d="m 632.57651,555.88314 6.92374,12.8473 41.32403,-15.23529 a 32.490253,38.07352 0 0 1 27.05064,3.82515 c 7.21205,5.32371 11.82824,13.77639 1.44154,26.28583 -20.77123,25.01763 -34.61871,11.49334 -34.61871,11.49334 0,0 -69.81838,38.54191 -81.35831,19.60945 -11.53994,-18.93246 -12.11655,-28.3987 -12.11655,-28.3987 0,0 44.4288,-32.45546 51.35362,-30.42708 z"
         id="path44"
         style="fill:#2f2e41;stroke-width:1.18218791" />
      <path
         d="m 719.12655,600.50893 c 0,0 18.46367,14.19999 -3.46187,20.96212 -21.92555,6.76215 -38.08276,-2.70536 -38.08276,-2.70536 0,0 -19.04138,0 -19.04138,-11.49462 0,-11.49461 6.34713,-12.8473 6.34713,-12.8473 l 19.61799,3.38107 c 0,0 23.65757,-7.43785 34.62089,2.70409 z"
         id="path46"
         style="fill:#d0cde1;stroke-width:1.18218791" />
      <path
         d="m 682.72667,411.64502 a 19.360263,22.687216 0 0 0 5.44071,2.28433 4.9667463,5.8202537 0 0 0 5.01917,-2.52108 6.7490088,7.9087881 0 0 0 0.57006,-3.57559 c 0.0688,-3.7138 -0.16053,-7.72706 -2.16777,-10.60008 -1.27772,-1.83003 -3.14298,-2.9818 -4.46657,-4.76575 a 19.218294,22.520849 0 0 1 -2.25732,-4.32296 c -2.57183,-5.66156 -6.38098,-11.10302 -11.67425,-12.73468 a 25.31752,29.668193 0 0 0 -6.81454,-0.61043 l -13.32983,0.22011 a 23.206543,27.194457 0 0 0 -6.41265,0.80879 c -4.29185,1.52033 -7.41518,5.74859 -10.27641,9.79129 a 52.256767,61.236799 0 0 0 -5.89282,9.53149 28.539134,33.443423 0 0 0 -3.38324,16.38578 13.08303,15.331275 0 0 0 0.4805,4.33576 20.532057,24.060376 0 0 0 1.45246,3.74324 c 2.50085,5.75371 3.98498,12.94072 1.16961,18.49222 4.8903,-2.34191 9.72928,-5.41073 12.95526,-10.31341 1.44372,-2.19347 2.5751,-4.76063 4.49934,-6.36926 1.92423,-1.60864 5.05629,-1.74941 6.29034,0.61299 a 5.638371,6.6072933 0 0 1 0.63559,3.09442 12.104533,14.184629 0 0 0 0.7295,5.22261 3.3395581,3.9134423 0 0 0 3.62787,2.42638 c 2.51176,-0.82927 2.2715,-5.34802 4.20666,-7.39944 1.46992,-1.55873 3.73707,-1.26183 5.62418,-1.96824 a 8.346711,9.7810464 0 0 0 4.79092,-5.52976 c 0.71531,-1.87866 0.70438,-6.79541 2.05745,-7.81281 1.696,-1.2759 5.5532,0.75249 7.12578,1.57408 z"
         id="path48"
         style="fill:#2f2e41;stroke-width:1.18218791" />
      <path
         d="m 618.10873,441.44759 a 6.8472953,8.0239645 0 0 1 3.56453,0.0106 c 3.70431,1.16584 12.00734,4.25002 13.78742,8.94538 2.30864,6.08516 10.38561,15.5514 10.38561,15.5514 0,0 10.96441,12.84601 8.65577,21.63654 -2.30864,8.79053 -10.96332,18.93246 -10.96332,18.93246 0,0 2.30864,41.9217 -9.23129,52.74062 -11.53993,10.81891 -16.15612,3.38106 -16.15612,13.523 0,10.14193 -35.77412,41.92169 -42.69895,22.31353 0,0 3.46187,-36.51352 2.30864,-49.35954 -1.13794,-12.66174 0.52747,-91.66004 40.34771,-104.29362 z"
         id="path50"
         style="fill:#d0cde1;stroke-width:1.18218791" />
      <path
         d="m 636.615,458.51674 c 0,0 35.1975,30.42708 28.85037,43.27311 0,0 -21.35002,12.17032 -25.96512,11.49462 -4.6151,-0.6757 -22.50325,-24.34065 -27.11943,-26.36903 -4.6162,-2.02838 -6.92374,-38.54191 24.23418,-28.3987 z"
         id="path52"
         style="fill:#d0cde1;stroke-width:1.18218791" />
      <path
         d="m 539.27638,485.78159 c -5.47347,2.1666 -10.43257,7.23437 -11.55412,13.87622 -0.51983,3.07904 -0.20094,6.27967 -0.63778,9.37664 -1.01454,7.18062 -5.82511,12.66558 -10.2622,17.76022 -4.43709,5.09465 -9.01834,11.01343 -9.34269,18.28236 -0.35383,7.95998 4.57251,15.41702 3.7196,23.32452 -0.9905,9.18853 -9.27169,15.1406 -11.31824,24.0847 -1.36618,5.97254 0.30797,12.40706 3.06436,17.67959 5.25069,10.04979 14.22752,16.87208 23.78535,20.5283 9.55781,3.65621 19.7403,4.4279 29.79501,4.55075 12.24213,0.14972 25.53593,-1.08138 34.73446,-10.55017 a 27.82601,32.607754 0 0 0 9.23784,-21.22831 c 0.87366,-10.96864 -3.03268,-22.30202 -0.33853,-32.85603 1.69598,-6.64185 5.94851,-12.70781 5.31401,-19.60049 -0.6203,-6.7391 -5.64383,-11.51636 -9.08932,-16.96038 -3.21724,-5.08312 -5.16987,-11.08637 -7.08317,-17.00517 l -6.54698,-20.25059 c -1.28646,-3.97999 -2.69961,-8.1673 -5.56739,-10.78053 -5.36972,-4.89116 -14.00365,-3.9288 -20.28198,-2.92164 -5.82402,0.93677 -12.0259,0.4735 -17.62714,2.69001 z"
         id="path54"
         style="fill:#2f2e41;stroke-width:1.18218791" />
      <path
         d="m 541.3273,544.77117 c 0,0 2.90272,11.05311 -18.86447,23.80698 -21.76719,12.75389 2.17759,26.35624 2.17759,26.35624 l 25.39288,6.80181 c 0,0 26.12019,-4.25129 29.02182,-9.35233 2.90164,-5.10105 7.98088,-22.10621 6.5306,-24.65674 a 33.920868,39.749978 0 0 0 -3.62786,-5.10104 c 0,0 -17.4131,-3.40155 -16.68688,-12.75388 0.72624,-9.35234 -23.94368,-5.10104 -23.94368,-5.10104 z"
         id="path56"
         style="fill:#ffb9b9;stroke-width:1.18218791" />
      <path
         d="m 541.3273,544.77117 c 0,0 2.90272,11.05311 -18.86447,23.80698 -21.76719,12.75389 2.17759,26.35624 2.17759,26.35624 l 25.39288,6.80181 c 0,0 26.12019,-4.25129 29.02182,-9.35233 2.90164,-5.10105 7.98088,-22.10621 6.5306,-24.65674 a 33.920868,39.749978 0 0 0 -3.62786,-5.10104 c 0,0 -17.4131,-3.40155 -16.68688,-12.75388 0.72624,-9.35234 -23.94368,-5.10104 -23.94368,-5.10104 z"
         id="path58"
         style="opacity:0.1;stroke-width:1.18218791" />
      <ellipse
         cy="534.99402"
         cx="555.4751"
         id="circle60"
         style="fill:#ffb9b9;stroke-width:1.18218791"
         rx="23.217463"
         ry="27.207256" />
      <path
         d="m 552.93602,592.38259 c 0,0 -27.96142,-2.39568 -28.49216,-25.00355 0,0 -9.9619,-1.35269 -12.86462,2.04758 -2.90273,3.40027 -12.33278,5.95207 -12.33278,14.45466 0,8.50259 15.96174,34.00907 15.96174,34.00907 0,0 8.706,34.00906 5.07813,39.95986 -3.62787,5.95078 -4.353,21.25646 -4.353,21.25646 0,0 36.27755,-3.40155 42.08193,0 5.80436,3.40155 29.02074,3.40027 30.4721,0 1.45136,-3.40027 -1.45136,-45.91193 -1.45136,-45.91193 0,0 6.53059,-10.20335 5.07922,-22.10621 l 17.4131,-23.80571 c 0,0 -6.5306,-22.95596 -16.68687,-22.95596 0,0 -13.78633,-4.25129 -14.1489,-2.12564 -0.36256,2.12564 6.89317,25.93135 -25.75653,30.18265 z"
         id="path62"
         style="fill:#ff6584;stroke-width:1.18218791" />
      <path
         d="m 487.63773,667.20253 c 0,0 6.5295,11.90414 23.21746,14.45466 16.68797,2.55052 19.5896,-4.25129 18.13823,-5.95079 -1.45136,-1.6995 -18.86446,-9.35361 -18.86446,-9.35361 l -10.15736,-9.35233 z m 118.98786,-10.20207 -18.86337,12.75387 c 0,0 -24.66882,-1.70205 -15.2366,6.80181 9.43224,8.50388 26.84534,5.10105 26.84534,5.10105 l 16.68686,-9.35234 z"
         id="path64"
         style="fill:#ffb9b9;stroke-width:1.18218791" />
      <path
         d="m 512.30546,679.10667 c 0,0 -17.41309,50.16194 3.62787,57.81477 21.04097,7.65285 79.08353,5.9508 92.14363,-4.25129 13.06009,-10.20208 16.68686,-23.80571 14.51146,-28.057 -2.17541,-4.25129 -16.68796,-16.15415 -26.84533,-17.00517 -10.15737,-0.85103 -83.43763,-8.50131 -83.43763,-8.50131 z"
         id="path66"
         style="fill:#2f2e41;stroke-width:1.18218791" />
      <path
         d="m 512.30546,679.10667 c 0,0 -17.41309,50.16194 3.62787,57.81477 21.04097,7.65285 79.08353,5.9508 92.14363,-4.25129 13.06009,-10.20208 16.68686,-23.80571 14.51146,-28.057 -2.17541,-4.25129 -16.68796,-16.15415 -26.84533,-17.00517 -10.15737,-0.85103 -83.43763,-8.50131 -83.43763,-8.50131 z"
         id="path68"
         style="opacity:0.05;stroke-width:1.18218791" />
      <path
         d="m 594.50031,682.22283 c 0,0 61.46185,-26.07212 60.73671,5.38515 -0.72513,31.45727 -39.1792,39.96113 -39.1792,39.96113 l -11.60873,1.6995 -63.84693,2.55179 c 0,0 2.1765,-13.60363 -2.90273,-15.30568 0,0 16.68687,-5.09976 17.41309,-5.95078 0.72624,-0.85103 42.08194,-17.85365 44.98357,-18.70467 2.90163,-0.85103 11.60873,-7.65284 18.13933,-6.80181 0,0 7.25464,-6.80181 15.2355,-5.10104 l -22.49124,1.70077 z"
         id="path70"
         style="fill:#2f2e41;stroke-width:1.18218791" />
      <path
         d="m 594.50031,682.22283 c 0,0 61.46185,-26.07212 60.73671,5.38515 -0.72513,31.45727 -39.1792,39.96113 -39.1792,39.96113 l -11.60873,1.6995 -63.84693,2.55179 c 0,0 2.1765,-13.60363 -2.90273,-15.30568 0,0 16.68687,-5.09976 17.41309,-5.95078 0.72624,-0.85103 42.08194,-17.85365 44.98357,-18.70467 2.90163,-0.85103 11.60873,-7.65284 18.13933,-6.80181 0,0 7.25464,-6.80181 15.2355,-5.10104 l -22.49124,1.70077 z"
         id="path72"
         style="opacity:0.1;stroke-width:1.18218791" />
      <path
         d="m 583.64074,686.4447 7.74934,20.71897 47.16007,-19.55569 3.62787,-11.05184 -12.33496,-2.5518 -24.79661,5.10233 -10.75473,3.40027 z"
         id="path74"
         style="fill:#2f2e41;stroke-width:1.18218791" />
      <path
         d="m 583.64074,686.4447 7.74934,20.71897 47.16007,-19.55569 3.62787,-11.05184 -12.33496,-2.5518 -24.79661,5.10233 -10.75473,3.40027 z"
         id="path76"
         style="opacity:0.1;stroke-width:1.18218791" />
      <path
         d="m 483.28363,711.41496 c 0,0 13.78524,20.40544 29.74807,25.5052 15.96282,5.09977 24.66773,-1.69949 24.66773,-1.69949 l -5.07814,-23.80571 -2.1765,-15.3044 -9.43223,-7.65284 -18.86446,-10.20207 -22.49124,-8.50132 c 0,0 -9.43223,-1.70205 -9.43223,0 0,1.70206 8.706,27.20725 8.706,27.20725 z"
         id="path78"
         style="fill:#2f2e41;stroke-width:1.18218791" />
      <path
         d="m 499.9716,722.46807 c 0,0 2.90163,24.65546 6.53059,26.35623 3.62895,1.70077 14.51037,-1.70077 17.41201,-3.40027 2.90164,-1.69949 12.76633,-9.54685 12.76633,-9.54685 0,0 -34.53134,-15.10988 -36.70893,-13.40911 z"
         id="path80"
         style="fill:#f2f2f2;stroke-width:1.18218791" />
      <path
         d="m 565.99612,725.01859 13.78524,2.55052 -1.45137,19.55442 -19.22812,-5.47216 z"
         id="path82"
         style="fill:#ffb9b9;stroke-width:1.18218791" />
      <path
         d="m 574.63332,730.46004 c 0,0 -6.4607,9.01192 0.0688,14.11297 l 4.353,4.25129 c 0,0 14.51147,3.40027 15.96174,5.10104 1.45028,1.70077 7.25573,-2.55052 7.25573,-2.55052 0,0 0.72623,-25.50648 0,-27.20725 -0.72623,-1.70078 -9.43223,-3.40027 -10.15737,-1.6995 -0.72513,1.70078 -9.43222,4.25002 -14.51036,2.55052 z"
         id="path84"
         style="fill:#f2f2f2;stroke-width:1.18218791" />
      <path
         d="m 516.65956,685.05746 c 0,0 -50.78793,-34.85882 -58.76989,-22.10494 -7.98196,12.75388 -16.68687,30.60752 6.53059,44.21115 23.21747,13.60363 95.7715,41.66063 95.7715,41.66063 0,0 10.8825,-19.55442 10.8825,-24.65673 0,0 -38.45297,-20.40544 -44.98247,-22.10494 -6.52951,-1.69949 -32.64969,-21.25646 -36.27865,-22.95596 -3.62896,-1.69949 -8.70601,-6.80182 -8.70601,-6.80182 z"
         id="path86"
         style="fill:#2f2e41;stroke-width:1.18218791" />
      <path
         d="m 502.1481,579.62998 -2.90164,2.55052 c 0,0 -6.5306,19.5557 -7.25573,30.6088 -0.72514,11.05311 -9.43223,45.06091 -8.7071,49.3122 0.72514,4.25129 1.45246,7.65283 5.80437,11.90284 0,0 5.80437,-15.30311 15.96282,-12.75259 l 12.33388,-52.71374 z m 101.57586,0 5.80436,7.65284 c 0,0 3.62786,10.20209 3.62786,12.75261 0,2.55051 7.25464,39.96113 7.98087,41.66063 0.72623,1.69949 3.62787,22.95596 0,28.05827 -3.62786,5.10232 -10.15737,8.50132 -10.15737,8.50132 0,0 4.35301,-17.85493 -9.43222,-18.70467 l 1.45136,-6.80182 -13.06119,-51.01296 z"
         id="path88"
         style="fill:#ff6584;stroke-width:1.18218791" />
      <path
         d="M 503.59837,638.16654 V 682.951 a 9.187607,10.766446 0 0 0 9.05328,10.76645 l 79.92333,1.38724 a 9.187607,10.766446 0 0 0 9.31757,-10.3531 l 1.46993,-44.7883 a 9.187607,10.766446 0 0 0 -9.04892,-11.1798 l -81.39216,-1.38212 a 9.187607,10.766446 0 0 0 -9.32194,10.76517 z"
         id="path90"
         style="fill:#3f3d56;stroke-width:1.18218791" />
      <ellipse
         ry="15.768946"
         rx="24.99099"
         cy="518.35223"
         cx="556.83691"
         id="ellipse92"
         style="fill:#2f2e41;stroke-width:1.18218791" />
      <ellipse
         cy="661.67664"
         cx="552.57343"
         id="circle94"
         style="fill:#f2f2f2;stroke-width:1.18218791"
         rx="5.8043656"
         ry="6.8018141" />
    </g>
  </g>
</svg>
