<?xml version="1.0" encoding="UTF-8" standalone="no"?>
<svg
   xmlns:dc="http://purl.org/dc/elements/1.1/"
   xmlns:cc="http://creativecommons.org/ns#"
   xmlns:rdf="http://www.w3.org/1999/02/22-rdf-syntax-ns#"
   xmlns:svg="http://www.w3.org/2000/svg"
   xmlns="http://www.w3.org/2000/svg"
   xmlns:xlink="http://www.w3.org/1999/xlink"
   id="svg1463"
   version="1.1"
   viewBox="0 0 297 210"
   height="210mm"
   width="297mm">
  <defs
     id="defs1457">
    <linearGradient
       id="a"
       x1="969.09998"
       y1="556.29999"
       x2="969.09998"
       y2="137.10001"
       gradientUnits="userSpaceOnUse">
      <stop
         offset="0"
         stop-color="gray"
         stop-opacity=".3"
         id="stop2" />
      <stop
         offset=".5"
         stop-color="gray"
         stop-opacity=".1"
         id="stop4" />
      <stop
         offset="1"
         stop-color="gray"
         stop-opacity=".1"
         id="stop6" />
    </linearGradient>
    <linearGradient
       id="b"
       x1="355.70001"
       y1="691.70001"
       x2="355.70001"
       y2="299"
       xlink:href="#a"
       gradientTransform="translate(-37.7,-42.499209)" />
    <linearGradient
       xlink:href="#a"
       id="linearGradient4666"
       gradientUnits="userSpaceOnUse"
       x1="969.09998"
       y1="556.29999"
       x2="969.09998"
       y2="137.10001"
       gradientTransform="translate(-37.7,-42.499209)" />
  </defs>
  <metadata
     id="metadata1460">
    <rdf:RDF>
      <cc:Work
         rdf:about="">
        <dc:format>image/svg+xml</dc:format>
        <dc:type
           rdf:resource="http://purl.org/dc/dcmitype/StillImage" />
        <dc:title></dc:title>
      </cc:Work>
    </rdf:RDF>
  </metadata>
  <g
     transform="translate(0,-87)"
     id="layer1">
    <g
       transform="matrix(0.26458333,0,0,0.26458333,0.12466638,82.880139)"
       id="g5597">
      <path
         d="m 1060.8,460.30079 c -37.7,47.9 -23,117.8 1,173.9 8,18.7 17,38.6 13.6,58.7 -4.1,24.6 -26,42.6 -49.1,52.1 a 146.2,146.2 0 0 1 -131,-10.8 c -33.3,-20.7 -57.2,-54.5 -91.1,-74.3 -56.8,-33.2 -129.1,-20.6 -190.8,2.2 -43.6,16.2 -91.3,37.2 -134.6,20.3 -30.5,-11.9 -51.6,-40.8 -63.1,-71.5 -5.6,-14.8 -9.6,-30.8 -20.2,-42.5 -6.3,-7 -14.5,-12 -23,-16.1 -76.8,-38.1 -173.9,-17.7 -248.5,-60 -50.5,-28.5 -82.7,-82.4 -97,-138.6 -14.3,-56.2 -12.7,-115 -9,-172.8 2.5,-41.1 7.2,-84.999999 33.4,-116.699999 27.8,-33.6 75.6,-46 118.6,-39.7 43,6.3 82,29.1 116.5,55.9 43,33.499999 82.8,75.099999 135.5,88.699999 36,9.2 73.7,4.2 110.7,2.4 62,-3 123.9,3.6 185.5,10.7 59,6.8 118.3,14.3 174.4,33.5 39.8,13.6 71.6,38.2 109.2,55.4 24.4,11.2 51.1,14.3 74.3,28.6 28.5,17.6 54.6,48.2 47.3,84 -7,34.1 -42.6,51.2 -62.6,76.6 z"
         id="path12"
         style="opacity:0.1;fill:#38d39f" />
      <path
         d="m 735,169.80079 c 0,0 -60.5,-18 -64.5,33 -4,51 16,135 0,162 -16,27 -73,66 -43,69.5 30,3.5 45,8.5 36,26.5 -9,18 -56,35 -46,48 10,13 15,29 5,45 -10,16 -45,26 -39,37 6,11 28,17 17,29 -11,12 -42.9,39.3 -30.4,39.2"
         stroke-miterlimit="10"
         id="path14"
         style="fill:none;stroke:#535461;stroke-width:3;stroke-miterlimit:10" />
      <rect
         x="682.79999"
         y="135.80086"
         width="153.60001"
         height="71.199997"
         rx="13"
         id="rect16"
         style="fill:#38d39f" />
      <path
         d="m 695.1,196.10079 h 129.1 v 1.3 H 695.1 Z"
         id="path18"
         style="opacity:0.1" />
      <path
         d="m 695.1,146.90079 h 129.1 v 49 H 695.1 Z"
         id="path20"
         style="opacity:0.3" />
      <circle
         cx="725.09998"
         cy="172.40071"
         r="17.799999"
         id="circle22"
         style="opacity:0.1" />
      <circle
         cx="794.20001"
         cy="172.40071"
         r="17.799999"
         id="circle24"
         style="opacity:0.1" />
      <path
         d="M 746.3,207.00079 H 773 v 15.6 h -26.7 z"
         id="path26"
         style="fill:#38d39f" />
      <path
         d="m 704,218.20079 h 111.3 v 89.1 H 704 Z m -2.2,106.8 h 115.8 v 11.1 H 701.8 Z m 18.9,37.9 v 51.2 h 20 v -66.8 h -20 z m 60.1,-15.6 v 66.8 h 20 v -66.8 z m -92,-109.1 v 20.6 a 30.1,30.1 0 0 0 -14.8,7.1 35,35 0 0 0 -8.8,13 65.6,65.6 0 0 0 -4.3,19.7 112.8,112.8 0 0 0 1.1,26.3 h -22.3 a 152,152 0 0 1 0.6,-32 84.7,84.7 0 0 1 7.2,-25.2 51.4,51.4 0 0 1 23.7,-24.9 43.7,43.7 0 0 1 17.5,-4.7 z"
         id="path28"
         style="fill:#38d39f" />
      <path
         d="m 720.7,347.30079 h 20 v 15.6 h -20 z m 0,28.9 h 20 v 20 h -20 z m 0,31.2 h 20 v 6.7 h -20 z m 60.1,-60.1 h 20 v 15.6 h -20 z m 0,28.9 h 20 v 20 h -20 z m 0,31.2 h 20 v 6.7 h -20 z m -92,-169.2 v 20.6 a 30.1,30.1 0 0 0 -14.8,7.1 l -2.7,-23 a 43.7,43.7 0 0 1 17.5,-4.7 z m -23.6,40.7 a 65.6,65.6 0 0 0 -4.3,19.7 l -20.5,-5.5 a 84.7,84.7 0 0 1 7.2,-25.3 z"
         id="path30"
         style="opacity:0.3" />
      <path
         d="m 830.5,238.20079 v 20.6 a 30.1,30.1 0 0 1 14.8,7.1 35,35 0 0 1 8.8,13 65.6,65.6 0 0 1 4.3,19.7 112.8,112.8 0 0 1 -1.2,26.4 h 22.2 a 152,152 0 0 0 -0.5,-32 84.7,84.7 0 0 0 -7.2,-25.2 51.4,51.4 0 0 0 -23.7,-24.9 43.7,43.7 0 0 0 -17.5,-4.7 z"
         id="path32"
         style="fill:#38d39f" />
      <path
         d="m 830.5,238.20079 v 20.6 a 30.1,30.1 0 0 1 14.8,7.1 l 2.7,-23 a 43.7,43.7 0 0 0 -17.5,-4.7 z m 23.5,40.7 a 65.6,65.6 0 0 1 4.4,19.7 l 20.5,-5.5 a 84.7,84.7 0 0 0 -7.2,-25.3 z"
         id="path34"
         style="opacity:0.3" />
      <path
         d="M 746.3,207.00079 H 773 v 1.8 h -26.7 z m 71,27 v 37.3 a 7.8,7.8 0 0 1 -2,-5.3 v -26.7 a 7.8,7.8 0 0 1 2,-5.3 z m -112.9,2.5 v 27.9 a 7.8,7.8 0 0 1 -2,4.7 v -37.2 a 7.8,7.8 0 0 1 2,4.7 z m 5.2,70.7 h 100.2 v 1.3 H 709.6 Z m -2.3,28.9 h 49 v 1 h -49 z m 53.5,0 h 49 v 1 h -49 z"
         id="path36"
         style="opacity:0.1" />
      <path
         d="m 712.8,69.900791 h 7.7 v 65.899999 h -7.7 z m 87.9,0 h 7.7 v 65.899999 h -7.7 z"
         id="path38"
         style="fill:#38d39f" />
      <circle
         cx="716.40002"
         cy="70.400711"
         r="8.6999998"
         id="circle40"
         style="opacity:0.1" />
      <circle
         cx="716.40002"
         cy="69.900711"
         r="8.6999998"
         id="circle42"
         style="fill:#38d39f" />
      <circle
         cx="804.79999"
         cy="70.400711"
         r="8.6999998"
         id="circle44"
         style="opacity:0.1" />
      <circle
         cx="804.79999"
         cy="69.900711"
         r="8.6999998"
         id="circle46"
         style="fill:#38d39f" />
      <path
         d="m 624,451.90079 c -3.4,3.3 -4.2,8 -5.4,12.4 a 61.5,61.5 0 0 1 -23,32.4 c -8.3,6.1 -19.5,13 -17.5,22.2 0.4,2.2 1.7,4.2 2,6.5 1.4,9.6 -13.3,14.6 -19,23 -4.2,6.3 -3,14 -1.8,21.2 1.5,8.7 3.4,18 10.6,24.5 1.9,1.7 4.2,3.2 5.6,5.3 3,4.7 0.4,10.9 3.1,15.7 3.7,6.4 15.2,6.6 21.9,2.3 6.7,-4.3 9.8,-11.4 12.8,-18 8,-18 17.8,-36.1 34.5,-49.3 16,-12.5 39.2,-22.3 42,-40.6 1.2,-7.8 -1.8,-16.4 2.7,-23.3 2.2,-3.3 5.8,-5.7 8.2,-8.8 7.3,-9.3 1.9,-22.8 -8.8,-29.4 -16,-10 -54,-10.1 -67.9,3.8 z"
         id="path48"
         style="opacity:0.5;fill:#dee3f3" />
      <path
         d="m 834.4,139.60079 70.6,-22.1 2.7,8.6 -70.6,22 z"
         id="path50"
         style="fill:#38d39f" />
      <path
         d="m 936.4,451.90079 c 0,0 -38.7,-7.8 -49,-18.1 -10.3,-10.3 -56.8,-28.4 -62,-15.5 -5.2,12.9 -69.7,56.8 -25.8,64.5 43.9,7.7 103.3,10.4 116.2,5.2 12.9,-5.2 20.6,-36.2 20.6,-36.2 z"
         id="path52"
         style="fill:#a8a8a8" />
      <path
         d="m 799.6,478.00079 c 43.9,7.8 103.3,10.4 116.2,5.2 9.8,-4 16.6,-22.8 19.3,-31.6 l 1.3,0.2 c 0,0 -7.7,31 -20.6,36.2 -12.9,5.2 -72.3,2.6 -116.2,-5.2 -12.7,-2.2 -16.3,-7.5 -15,-14.1 1.2,4.3 5.6,7.7 15,9.3 z"
         id="path54"
         style="opacity:0.2" />
      <path
         d="m 1022.3,114.20079 a 11.4,11.4 0 0 0 -3.1,-4.4 c -10.4,-9.5 -27.2,-6.6 -40.1,-12.399999 -3,-1.4 -6,-3.2 -9.3,-2.7 -4.5,0.7 -8.7,5.799999 -12.6,3.6 l 0.3,0.8 -0.3,-0.1 2.9,8.799999 a 32,32 0 0 0 4.4,9.6 25.3,25.3 0 0 0 6.2,42.2 c 0,0.3 0.2,0.5 0.4,0.8 l 0.3,0.2 a 29.6,29.6 0 0 1 2,6.1 c -3.4,0.5 -9.2,4.2 -15,9.7 l -11.4,-0.4 a 37.5,37.5 0 0 1 -20.6,-7 l -34.3,-24.7 a 11.5,11.5 0 0 0 -6.6,3 c -4.3,-4.5 -7.9,-9.2 -7.6,-11.9 0,0 -16,-29.8 -21.7,-14.9 -5.7,14.9 10.9,30.6 10.9,30.6 l 10.5,13.7 a 57.6,57.6 0 0 0 -0.7,7.2 c 13,15 58.7,28.4 58.7,28.4 l 7,0.4 0.1,0.3 a 24.2,24.2 0 0 0 -0.6,5.7 v 1.5 c 0.3,23.8 3.6,96.6 3.6,96.6 l 2,-0.8 -0.5,6.5 c 0,0 -30.5,4.2 -53,12.8 -22.5,8.6 -23.1,18.4 -23.1,18.4 v 87.8 c -6.5,3.3 -16.6,7.7 -21.8,5.3 -5.6,-2.5 -8.7,-0.4 -9.3,1.8 a 2.8,2.8 0 0 0 0,1.4 2.4,2.4 0 0 0 0.2,0.6 2.3,2.3 0 0 0 0.4,0.5 c 2.2,2.1 49.3,20.6 60.2,17.8 a 7.5,7.5 0 0 0 1,-0.4 l 0.3,-0.1 0.5,-0.3 0.4,-0.2 0.4,-0.4 c 0.2,0 0.2,-0.1 0.3,-0.2 l 0.5,-0.4 0.2,-0.3 0.4,-0.5 0.2,-0.3 0.3,-0.5 0.2,-0.3 0.3,-0.6 0.2,-0.4 0.2,-0.6 0.2,-0.3 0.2,-0.7 v -0.3 l 0.3,-0.8 v -0.3 l 0.2,-0.8 v -0.3 l 0.2,-0.9 v -0.2 l 0.1,-1 v -0.1 -1 -0.2 l 0.1,-1 v -0.2 a 59.5,59.5 0 0 0 -1.4,-12.6 l 2.6,-74.7 a 407.8,407.8 0 0 0 42.7,-1.6 l 1.6,35.7 c 0,0 0,23.4 8,34 6.8,9.2 14.6,49.5 16.8,61 -3,5.6 -8.6,12.5 -18.3,12.3 0,0 -18.4,-1.6 -17.3,3.4 a 2.6,2.6 0 0 0 0,0.4 3.6,3.6 0 0 0 0.3,0.5 l 0.3,0.4 v 0.1 l 0.4,0.5 a 10,10 0 0 0 1,1 c 9.5,8.6 64.6,10 64.6,10 v -0.2 -0.2 a 94,94 0 0 0 -3.7,-25.2 h 0.8 c 0,0 -8,-71.7 -14.5,-80.3 0,0 -1.8,-37.8 2.1,-61.5 l 0.8,-0.3 c 18.2,-6.8 19.5,-23.6 17.7,-36 3.4,1.1 5.5,2 5.5,2 l -0.2,-1.6 h 0.2 l -1,-5.7 a 246,246 0 0 0 -7.7,-39 75.1,75.1 0 0 1 -3.2,-14.7 175,175 0 0 1 -1.1,-19.6 187.9,187.9 0 0 1 2,-26.1 c 1,-7.6 2,-16.2 2,-22.2 a 29.5,29.5 0 0 0 -0.5,-6.2 c -1,-4.4 -5.2,-7.3 -9.6,-9.1 l -1,-0.4 0.5,-5.6 a 4.8,4.8 0 0 0 3.7,0.8 c 2,-0.4 3.3,-2 4.5,-3.5 6.4,-8 13,-16.1 15.5,-26 a 56,56 0 0 0 1.4,-13.3 v -0.7 a 14.5,14.5 0 0 0 -0.6,-5 z"
         id="path56"
         style="fill:url(#linearGradient4666)" />
      <path
         d="m 964,152.70079 c 0,0 9.7,14.6 7.6,21.5 -2.1,6.9 23,2.8 23,2.8 0,0 0.6,-27 5.5,-33.3 4.9,-6.3 -36.2,9 -36.2,9 z m -64.4,9.4 c 0,0 -20.1,-16.7 -19.4,-23 0,0 -15.3,-29.2 -20.9,-14.6 -5.6,14.6 10.4,30 10.4,30 l 19.5,25.7 z"
         id="path58"
         style="fill:#f7c4a7" />
      <path
         d="m 879.1,423.90079 c 0,0 -18.7,11.7 -26.4,8.3 -7.7,-3.4 -10.4,2 -8.3,4.1 2.1,2.1 47.2,20.2 57.7,17.4 10.5,-2.8 5,-25.5 5,-25.5 z m 99.4,50.7 c 0,0 -4.5,19 -20.1,18.7 0,0 -23.7,-2 -14.6,6.3 9.1,8.3 61.8,9.7 61.8,9.7 0,0 0,-28.5 -9.7,-34.7 -9.7,-6.2 -17.4,0 -17.4,0 z"
         id="path60"
         style="fill:#535461" />
      <path
         d="m 950,339.70079 2.1,48.7 c 0,0 0,23 7.7,33.3 7.7,10.3 16.6,62.6 16.6,62.6 h 26.5 c 0,0 -7.7,-70.2 -14,-78.6 0,0 -2.7,-61.8 7,-75.7 z"
         id="path62"
         style="fill:#575988" />
      <path
         d="m 950,339.70079 2.1,48.7 c 0,0 0,23 7.7,33.3 7.7,10.3 16.6,62.6 16.6,62.6 h 26.5 c 0,0 -7.7,-70.2 -14,-78.6 0,0 -2.7,-61.8 7,-75.7 z"
         id="path64"
         style="opacity:0.1" />
      <path
         d="m 1005,295.90079 c 0,0 16,38.2 -13.3,49.4 -29.3,11.2 -82,9.7 -82,9.7 l -2.8,80.6 c 0,0 -32.6,4.2 -33.3,-6.2 v -88.3 c 0,0 0.7,-9.7 22.2,-18 21.5,-8.3 50.8,-12.6 50.8,-12.6 l 1.3,-18 z"
         id="path66"
         style="fill:#575988" />
      <path
         d="m 979.3,169.90079 a 33.3,33.3 0 0 1 16.4,2.4 c 4.2,1.8 8.3,4.6 9.2,8.9 1.1,5.1 0,16.6 -1.5,26.4 a 181.6,181.6 0 0 0 -0.8,46 c 0.7,6.4 1.7,12 3,14.5 4.2,7.6 8.4,43.8 8.4,43.8 0,0 -45.9,-17.4 -68.8,-7 0,0 -3.2,-71.2 -3.5,-94.5 -0.3,-18 22.6,-38.6 30.2,-39.3 4.5,-0.4 3,-0.7 7.4,-1.2 z"
         id="path68"
         style="opacity:0.1" />
      <path
         d="m 979.3,168.60079 a 33.3,33.3 0 0 1 16.4,2.3 c 4.2,1.8 8.3,4.6 9.2,9 1.1,5 0,16.5 -1.5,26.3 a 181.6,181.6 0 0 0 -0.8,46 74.8,74.8 0 0 0 3,14.5 c 3.2,9.4 8.4,43.8 8.4,43.8 0,0 -45.9,-17.4 -68.8,-7 0,0 -3.2,-71.2 -3.5,-94.5 -0.3,-18 22.6,-38.6 30.2,-39.3 4.5,-0.4 3,-0.7 7.4,-1.1 z"
         id="path70"
         style="fill:#e14b5a" />
      <path
         d="m 991.7,206.90079 -49.3,-2.8 c 0,0 -3.2,-24.2 4,-24 l 48.8,1.8 c 0,0 10.4,12.5 -3.5,25 z"
         id="path72"
         style="opacity:0.1" />
      <path
         d="m 991.7,205.50079 -56.3,-2.7 c 0,0 -43.8,-13.3 -56.3,-27.9 0,0 0.7,-25.7 14.6,-27 l 33,24 a 35.5,35.5 0 0 0 19.7,6.9 l 48.8,1.7 c 0,0 10.4,12.5 -3.5,25 z"
         id="path74"
         style="fill:#e14b5a" />
      <path
         d="m 994.2,155.90079 c 0.8,-6.7 3.8,-8.9 5.9,-11.5 4.8,-6.3 -36.2,9 -36.2,9 a 73.7,73.7 0 0 1 5.6,10.2 25,25 0 0 0 10.4,2.3 c 6,0 10,-6.5 14.3,-10 z"
         id="path76"
         style="opacity:0.1" />
      <circle
         cx="979.90002"
         cy="140.20076"
         r="25"
         id="circle78"
         style="fill:#f7c4a7" />
      <path
         d="m 964.1,122.60079 c -2.6,-2.9 -4,-6.8 -5.1,-10.5 l -2.8,-8.6 c 3.8,2.2 7.8,-2.8 12.1,-3.5 3.1,-0.499999 6,1.3 8.9,2.6 12.3,5.7 28.5,2.9 38.4,12.1 a 11.1,11.1 0 0 1 3.1,4.4 14.5,14.5 0 0 1 0.6,4.9 55.8,55.8 0 0 1 -1.3,13 69,69 0 0 1 -14.9,25.4 c -1.2,1.4 -2.5,3 -4.3,3.4 -3.6,0.8 -6.4,-3 -7.7,-6.4 a 68.8,68.8 0 0 1 -4,-14 18.3,18.3 0 0 0 -1.7,-5.9 c -2.2,-3.8 -7.5,-7.4 -10.7,-10.4 -3.2,-2.9 -7.6,-3.2 -10.6,-6.5 z"
         id="path80"
         style="opacity:0.1" />
      <path
         d="m 964.1,121.90079 c -2.6,-2.9 -4,-6.7 -5.1,-10.5 l -2.8,-8.6 c 3.8,2.2 7.8,-2.8 12.1,-3.499999 3.1,-0.5 6,1.299999 8.9,2.599999 12.3,5.7 28.5,2.9 38.4,12.1 a 11.1,11.1 0 0 1 3.1,4.4 14.5,14.5 0 0 1 0.6,4.9 55.8,55.8 0 0 1 -1.3,13 69,69 0 0 1 -14.9,25.4 c -1.2,1.5 -2.5,3 -4.3,3.4 -3.6,0.8 -6.4,-3 -7.7,-6.4 a 68.8,68.8 0 0 1 -4,-14 18.3,18.3 0 0 0 -1.7,-5.9 c -2.2,-3.8 -7.5,-7.4 -10.7,-10.4 -3.2,-2.9 -7.6,-3.2 -10.6,-6.5 z"
         id="path82"
         style="fill:#632652" />
      <ellipse
         cx="986.5"
         cy="143.00081"
         rx="2.0999999"
         ry="4.5"
         id="ellipse84"
         style="fill:#f7c4a7" />
      <path
         d="m 999,263.60079 c 0,0 -1.4,4.2 -8.3,3.5 -6.9,-0.7 -27.1,-2.1 -27.1,0"
         id="path86"
         style="opacity:0.1" />
      <path
         d="m 943.8,498.90079 a 5.9,5.9 0 0 1 -2,-2.9 c -0.2,0.9 0.3,2 2,3.6 9,8.3 61.8,9.7 61.8,9.7 v -0.7 c -0.3,0 -52.8,-1.4 -61.8,-9.7 z m -41.8,-46.6 c -10.4,2.8 -55.6,-15.3 -57.6,-17.4 a 2.3,2.3 0 0 1 -0.6,-1 2.5,2.5 0 0 0 0.6,2.4 c 2,2.1 47.2,20.2 57.7,17.4 5.3,-1.4 6.5,-8.1 6.4,-14.3 0,5.7 -1.5,11.6 -6.4,13 z"
         id="path88"
         style="opacity:0.5;fill:#ffffff" />
      <path
         d="m 505.5,505.50079 a 298.4,298.4 0 0 1 -4.5,-41 55,55 0 0 0 -38.7,-50.2 c -4,-1.2 -8.3,-2.4 -13.1,-3.4 -42.1,-9 -55,-1.1 -56.4,0 a 54,54 0 0 1 -3.2,-7 l -0.2,-0.8 a 54,54 0 0 0 14.4,-32.5 c 7,-7.1 11.1,-15.7 11.1,-25 0,-8 -3,-15.4 -8.3,-21.9 v -12.5 a 54.7,54.7 0 0 0 -54.7,-54.7 h -4.6 a 54.7,54.7 0 0 0 -54.7,54.7 v 13.5 a 34,34 0 0 0 -7.5,21 c 0,9 4,17.4 10.7,24.5 a 54,54 0 0 0 15,33.5 l 0.9,6.6 -75.4,16 c 0,0 -29,1.1 -47.8,39.8 -15.8,32.6 -47.3,116.7 -56.6,141.7 l -2.7,7.1 1,-0.8 -1,2.4 1.4,-1.2 c -1.4,10.5 -1.5,28.4 12.2,30.7 11.5,1.9 41,2.6 63.5,3 h 1.5 l 26.1,0.2 v -0.2 h 240.7 v -2.5 a 16.6,16.6 0 0 0 -1.4,-6.5 l 0.4,-0.4 a 13.2,13.2 0 0 1 2.5,5.8 5.8,5.8 0 0 1 -0.2,0.6 l 0.2,-0.4 a 6.2,6.2 0 0 1 -0.2,2 c 0,0 31,-79.6 30.6,-127 a 80.5,80.5 0 0 0 -1.1,-15 z m -192.5,-84.4 a 55.2,55.2 0 0 1 -0.7,-7 z m -93.5,170.8 v 19 l -11.9,2.5 z"
         id="path90"
         style="fill:url(#b)" />
      <path
         d="m 348.5,264.20079 a 54.7,54.7 0 0 1 54.7,54.7 v 23.3 H 293.8 v -23.3 a 54.7,54.7 0 0 1 54.7,-54.7 z"
         id="path92"
         style="fill:#e14b5a" />
      <ellipse
         cx="348.79999"
         cy="349.9007"
         rx="62.400002"
         ry="42.799999"
         id="ellipse94"
         style="fill:#e14b5a" />
      <path
         d="m 308.9,391.40079 c 0,0 13,68 0,86.4 -13,18.4 39.8,25.7 39.8,25.7 l 54.7,-20 7.6,-49 c 0,0 -33.3,-18.7 -26.4,-56.5 z m 161.4,229.5 c 0,0 3.5,15 -15.3,17.6 a 106,106 0 0 1 -33.3,-0.4 l -4.2,-37.5 h 43.6 z m -331,-19.1 c 0,0 -8.3,33.6 10.4,36.7 18.7,3.1 87.6,3 87.6,3 v -39.6 l -31.1,6.6 -29.3,-28 z"
         id="path96"
         style="fill:#f7c4a7" />
      <path
         d="m 312.9,413.40079 -73.3,15.5 c 0,0 -27.9,1.1 -45.9,38.2 -18,37.1 -57,143 -57,143 0,0 33.3,-33.6 72.3,2.4 l 26,-47 -5.7,74.5 h 201.6 v -35.1 c 0,0 42,22.6 39,35.2 0,0 36,-92.8 28.3,-135 a 286.8,286.8 0 0 1 -4.3,-39.4 52.8,52.8 0 0 0 -37.2,-48.2 146,146 0 0 0 -12.6,-3.3 c -43.2,-9.2 -54.3,0 -54.3,0 0,0 -8.4,27.3 -8.2,39.6 0.1,15.9 -22.6,26.4 -22.6,26.4 0,0 -33.7,-8 -35.2,-14.5 -1.5,-6.5 -13.6,-44.6 -11,-52.2 z"
         id="path98"
         style="opacity:0.1" />
      <path
         d="m 312.9,411.90079 -73.3,15.4 c 0,0 -27.9,1.2 -45.9,38.3 -18,37.1 -57,143 -57,143 0,0 33.3,-33.5 72.3,2.3 l 26,-47 -5.7,74.6 h 201.6 v -35.2 c 0,0 42,22.6 39,35.2 0,0 36,-92.8 28.3,-135 a 286.8,286.8 0 0 1 -4.3,-39.4 52.8,52.8 0 0 0 -37.2,-48.3 146,146 0 0 0 -12.6,-3.2 c -43.2,-9.2 -54.3,0 -54.3,0 0,0 -8.4,27.2 -8.2,39.6 0.1,15.9 -22.6,26.4 -22.6,26.4 0,0 -33.7,-8 -35.2,-14.6 -1.5,-6.6 -13.6,-44.5 -11,-52.2 z"
         id="path100"
         style="fill:#575988" />
      <path
         d="m 387.8,408.60079 a 51.8,51.8 0 0 1 -2,-27.2 l -75.8,13.5 c 0,0 1.1,5.7 2.3,14.3 a 52,52 0 0 0 75.5,-0.5 z"
         id="path102"
         style="opacity:0.1" />
      <path
         d="m 400.7,369.60079 a 52.003461,52.003461 0 0 1 -104,1.2 v -1.2 a 52,52 0 0 1 29.1,-46.8 q 2.3,-1.1 4.8,-2 a 52.4,52.4 0 0 1 26.8,-2.5 52,52 0 0 1 43.2,47.8 v 3.5 z"
         id="path104"
         style="fill:#f7c4a7" />
      <g
         id="g110"
         style="opacity:0.1"
         transform="translate(0,22.900791)">
        <path
           d="m 330.5,299 a 0.8,0.8 0 0 1 0.1,0 l -4.8,2 a 52,52 0 0 0 -29.2,46.8 v 1.3 a 11.6,11.6 0 0 0 4.7,-1.1 c 12.7,-6 20.3,-24 23.3,-36.7 1,-4.5 2,-9.6 6,-12.2 z"
           id="path106" />
        <path
           d="m 370.4,300.5 a 51.6,51.6 0 0 0 -13,-4 16.7,16.7 0 0 1 9.3,5.9 23.8,23.8 0 0 1 2.9,5 52.2,52.2 0 0 0 -43.8,1 c 3.3,7.1 13.4,11 20.1,13.6 q 11.2,4.3 22.5,7.9 l -6.7,-5.5 15.1,2.4 a 26.2,26.2 0 0 0 -1,-8.9 c 2.9,2.4 6.7,3.1 9.9,5.1 5.8,3.7 8.3,10.9 11.5,17 a 11,11 0 0 0 3.4,4.4 52,52 0 0 0 -30.2,-43.9 z"
           id="path108" />
      </g>
      <path
         d="m 330.5,320.80079 a 0.8,0.8 0 0 1 0.1,0 q -2.5,0.9 -4.8,2 a 52,52 0 0 0 -29.2,46.8 v 1.2 a 11.6,11.6 0 0 0 4.7,-1.1 c 12.7,-6 20.3,-24 23.3,-36.7 1,-4.5 2,-9.6 6,-12.2 z"
         id="path112"
         style="fill:#632652" />
      <path
         d="m 370.4,322.30079 a 51.6,51.6 0 0 0 -13,-4 16.7,16.7 0 0 1 9.3,5.8 23.8,23.8 0 0 1 2.9,5 52.2,52.2 0 0 0 -43.8,1 c 3.3,7.1 13.4,11 20.1,13.7 q 11.2,4.2 22.5,7.8 l -6.7,-5.4 15.1,2.4 a 26.2,26.2 0 0 0 -1,-9 c 2.9,2.4 6.7,3.2 9.9,5.1 5.8,3.8 8.3,11 11.5,17.1 a 11,11 0 0 0 3.4,4.3 52,52 0 0 0 -30.2,-43.8 z"
         id="path114"
         style="fill:#632652" />
      <path
         d="m 290.7,360.90079 c 0,0 53.6,-66.5 115.5,0 l -5.3,-14.8 c 0,0 -29.1,-42.5 -49.8,-33.3 -20.7,9.2 -40.9,15.7 -40.9,15.7 z"
         id="path116"
         style="opacity:0.1" />
      <path
         d="m 290.7,359.80079 c 0,0 53.6,-66.6 115.5,0 l -5.3,-15 c 0,0 -29.1,-42.4 -49.8,-33.2 -20.7,9.2 -40.9,15.7 -40.9,15.7 z"
         id="path118"
         style="fill:#e14b5a" />
      <path
         d="m 246.7,503.30079 c 0,0 -11.5,30.6 4.6,58.1 16.1,27.5 -14.2,39 -14.2,39 m 195.5,-124.7 c 0,0 20,25.3 7,47.8 -13,22.5 -12.3,77 -12.3,77"
         id="path120"
         style="opacity:0.1" />
      <path
         d="m 229.1,623.00079 h 221.1 a 18.4,18.4 0 0 1 18.4,18.4 H 210.7 a 18.4,18.4 0 0 1 18.4,-18.4 z"
         id="path122"
         style="fill:#535461" />
      <path
         d="M 262.4,496.80079 H 417 a 39,39 0 0 1 39,39 v 91.4 H 223.4 v -91.3 a 39,39 0 0 1 39,-39 z"
         id="path124"
         style="fill:#535461" />
      <circle
         cx="339.5"
         cy="567.70074"
         r="13.8"
         id="circle126"
         style="fill:#ffffff" />
      <path
         d="m 293.8,329.80079 c 0,0 52.6,-52.6 109.4,-1"
         stroke-miterlimit="10"
         id="path128"
         style="opacity:0.1;fill:none;stroke:#000000;stroke-miterlimit:10" />
      <path
         d="m 411.2,326.40079 h 5.3 v 30 h -5.3 z"
         id="path130"
         style="fill:#6a5c99" />
      <path
         d="m 404.1,345.80079 a 18.2,18.2 0 0 1 18.2,18.2 v 1.2 a 18.2,18.2 0 0 1 -18.2,18.2 z"
         id="path132"
         style="fill:#ffd037" />
      <rect
         x="400.60001"
         y="344.00079"
         width="8.1999998"
         height="41.099998"
         rx="4.0999999"
         id="rect134"
         style="fill:#6a5c99" />
      <path
         d="m 285.2,356.90079 h -5.3 v -30 h 5.3 z"
         id="path136"
         style="fill:#6a5c99" />
      <path
         d="m 292.3,383.90079 a 18.2,18.2 0 0 1 -18.3,-18 v -1.2 a 18.2,18.2 0 0 1 18.3,-18.2 z"
         id="path138"
         style="fill:#ffd037" />
      <rect
         x="-295.79999"
         y="-385.80084"
         width="8.1999998"
         height="41.099998"
         rx="4.0999999"
         transform="scale(-1)"
         id="rect140"
         style="fill:#6a5c99" />
      <path
         d="m 410.6,294.40079 c -7.2,-14.9 -22.8,-32.9 -56.4,-34.3 h -0.4 l -12,0.5 c -33.3,1.6 -48.8,19.5 -56,34.4 a 77.2,77.2 0 0 0 -7.3,32.1 l 4,-0.1 h 4.2 a 70,70 0 0 1 6.7,-28.7 c 9,-18.6 25.7,-28.5 49.5,-29.4 l 10.6,-0.6 c 23.8,0.9 40.5,10.8 49.5,29.4 a 70,70 0 0 1 6.7,28.6 l 4.1,0.1 4.1,0.1 a 77.2,77.2 0 0 0 -7.3,-32.1 z"
         id="path142"
         style="fill:#ffd037" />
      <path
         d="m 37.6,641.60079 h 560.8 v 150.6 H 37.6 Z"
         id="path144"
         style="fill:#d6d6e3" />
      <path
         d="m 37.6,651.70079 h 560.8 v 19.5 H 37.6 Z"
         id="path146"
         style="opacity:0.1" />
      <path
         d="m 0,639.40079 h 636 v 19.5 H 0 Z"
         id="path148"
         style="fill:#d6d6e3" />
      <path
         d="m 435.5,590.90079 c 0,0 24,44 84,32 60,-12 31,111 31,111 0,0 -9.8,58.6 -2.9,58.3"
         stroke-miterlimit="10"
         id="path150"
         style="fill:none;stroke:#535461;stroke-width:3;stroke-miterlimit:10" />
    </g>
  </g>
</svg>
